<svg width="208" height="208" viewBox="0 0 208 208" fill="none" xmlns="http://www.w3.org/2000/svg">
<path d="M72 96V152C72 155.183 70.7357 158.235 68.4853 160.485C66.2348 162.736 63.1826 164 60 164C56.8174 164 53.7652 162.736 51.5147 160.485C49.2643 158.235 48 155.183 48 152V96C48 92.8174 49.2643 89.7652 51.5147 87.5147C53.7652 85.2643 56.8174 84 60 84C63.1826 84 66.2348 85.2643 68.4853 87.5147C70.7357 89.7652 72 92.8174 72 96ZM100 164C103.183 164 106.235 162.736 108.485 160.485C110.736 158.235 112 155.183 112 152V124C112 119.757 113.686 115.687 116.686 112.686C119.687 109.686 123.757 108 128 108C132.243 108 136.313 109.686 139.314 112.686C142.314 115.687 144 119.757 144 124V152C144 155.183 145.264 158.235 147.515 160.485C149.765 162.736 152.817 164 156 164C159.183 164 162.235 162.736 164.485 160.485C166.736 158.235 168 155.183 168 152V124C167.998 117.115 166.219 110.347 162.835 104.351C159.45 98.3556 154.576 93.3347 148.683 89.7747C142.79 86.2147 136.078 84.2361 129.196 84.0303C122.314 83.8245 115.495 85.3985 109.4 88.6C107.855 86.6529 105.743 85.2336 103.357 84.5382C100.971 83.8428 98.4273 83.9056 96.0782 84.7179C93.729 85.5303 91.6901 87.052 90.2431 89.073C88.796 91.094 88.0122 93.5144 88 96V152C88 155.183 89.2643 158.235 91.5147 160.485C93.7652 162.736 96.8174 164 100 164V164ZM208 20V188C207.974 193.296 205.858 198.368 202.113 202.113C198.368 205.858 193.296 207.974 188 208H20C14.7038 207.974 9.63195 205.858 5.88691 202.113C2.14186 198.368 0.0262845 193.296 0 188V20C0.0262845 14.7038 2.14186 9.63195 5.88691 5.88691C9.63195 2.14186 14.7038 0.0262845 20 0H188C193.296 0.0262845 198.368 2.14186 202.113 5.88691C205.858 9.63195 207.974 14.7038 208 20V20ZM184 24H24V184H184V24ZM60 72C63.1645 72 66.2579 71.0616 68.8891 69.3035C71.5203 67.5454 73.5711 65.0466 74.7821 62.1229C75.9931 59.1993 76.3099 55.9823 75.6926 52.8786C75.0752 49.7749 73.5513 46.9239 71.3137 44.6863C69.0761 42.4487 66.2251 40.9248 63.1214 40.3074C60.0177 39.6901 56.8007 40.0069 53.8771 41.2179C50.9534 42.4289 48.4546 44.4797 46.6965 47.1109C44.9384 49.7421 44 52.8355 44 56C44 60.2435 45.6857 64.3131 48.6863 67.3137C51.6869 70.3143 55.7565 72 60 72Z" fill="white"/>
</svg>
