<?xml version="1.0" encoding="UTF-8"?>
<svg xmlns="http://www.w3.org/2000/svg" xmlns:xlink="http://www.w3.org/1999/xlink" viewBox="0 0 512 512" width="512px" height="512px">
<g id="surface148828127">
<path style=" stroke:none;fill-rule:nonzero;fill:rgb(0%,30.19608%,25.098041%);fill-opacity:1;" d="M 234.667969 64 L 234.667969 174.042969 C 227.265625 171.035156 211.289062 170.667969 203.417969 170.667969 C 144.195312 170.667969 89.375 198.527344 89.375 277.332031 C 89.375 371.625 163.625 384 213.332031 384 C 232.960938 384 277.332031 382.0625 298.667969 375.875 L 298.667969 64 Z M 341.332031 64 L 341.332031 128 L 405.332031 128 L 405.332031 64 Z M 341.332031 170.667969 L 341.332031 356.292969 C 341.332031 388.632812 321.664062 422.296875 277.332031 441.625 L 338.332031 469.25 C 400.328125 447.917969 405.332031 377.625 405.332031 356.292969 L 405.332031 170.667969 Z M 212.707031 225.082031 C 219.535156 225.082031 227.199219 226.335938 234.667969 228.042969 L 234.667969 328.375 C 227.199219 330.082031 219.535156 331.375 212.707031 331.375 C 184.761719 331.375 157.667969 322.558594 157.667969 277.332031 C 157.667969 232.105469 184.761719 225.082031 212.707031 225.082031 Z M 212.707031 225.082031 "/>
</g>
</svg>
