<?xml version="1.0" encoding="UTF-8"?>
<svg xmlns="http://www.w3.org/2000/svg" xmlns:xlink="http://www.w3.org/1999/xlink" viewBox="0 0 512 512" width="512px" height="512px">
<g id="surface149027155">
<path style=" stroke:none;fill-rule:nonzero;fill:rgb(0%,47.450981%,41.960785%);fill-opacity:1;" d="M 66.667969 21.332031 C 47.339844 21.332031 32.066406 31.585938 24.832031 49.332031 C 22.550781 54.816406 21.394531 60.628906 21.375 66.625 C 21.355469 86.488281 34.152344 102.605469 41.832031 112.25 C 43.175781 113.933594 44.386719 115.4375 45.667969 117.25 L 49.125 121.832031 C 52.558594 126.335938 56.472656 131.441406 57.707031 134 C 58.113281 135.171875 58.648438 137.230469 59.375 139.832031 C 62.722656 151.886719 68.976562 174.289062 78.917969 191.332031 C 82.925781 198.203125 88.570312 206.835938 92.625 212.917969 C 89.914062 226.484375 85.332031 251.476562 85.332031 266.667969 C 85.332031 293.332031 90.863281 314.75 102.917969 334.332031 C 107.375 341.332031 120.980469 362.667969 144 362.667969 C 152.171875 362.667969 165.746094 359.476562 169.417969 339.207031 C 185.738281 360.265625 213.332031 386.667969 256 405.332031 C 256 405.332031 176.015625 312.007812 161.957031 253.832031 C 161.957031 253.832031 146.660156 269.339844 133.667969 301 C 129.785156 291.230469 128 280.214844 128 266.667969 C 128 253.289062 133.882812 223.390625 136.167969 213 L 138.167969 203.957031 L 132.917969 196.332031 C 132.832031 196.183594 122.085938 180.667969 115.792969 169.875 C 108.625 157.585938 103.335938 138.574219 100.5 128.375 C 99.113281 123.40625 98.023438 119.808594 97 117.375 C 93.265625 109.289062 87.800781 102.1875 83 95.917969 L 80.332031 92.375 C 78.988281 90.433594 77.214844 88.183594 75.207031 85.667969 C 71.304688 80.761719 64.035156 71.617188 64.25 65.75 L 66.625 64.082031 L 66.667969 64 C 83.625 64 105.472656 76.039062 113.707031 80.582031 C 116.394531 82.054688 118.371094 83.074219 119.417969 83.542969 L 123.125 85.167969 L 130.417969 85.417969 C 139.953125 85.628906 168.9375 86.308594 189.417969 94.5 C 226.769531 109.433594 247.425781 124.382812 268.417969 151.667969 C 317.996094 216.136719 336.289062 299.625 336.457031 300.457031 L 339.125 312.5 L 350.792969 316.292969 C 351.195312 316.441406 383.847656 327.351562 414.292969 355.875 C 376 365.347656 362.667969 384 362.667969 384 C 362.667969 384 372.820312 403.796875 421.332031 434.667969 C 450.667969 453.332031 466.667969 466.667969 490.667969 490.667969 C 490.667969 490.667969 466.679688 437.328125 433.167969 394.832031 C 458.679688 386.664062 490.042969 382.417969 490.042969 382.417969 L 470.625 355.5 C 438.667969 311.191406 395.8125 288.828125 375.417969 280.125 C 368.335938 253.117188 346.945312 183.777344 302.25 125.667969 C 276.671875 92.40625 249.453125 72.519531 205.25 54.832031 C 179.074219 44.378906 147.597656 43.132812 133.582031 42.792969 C 121.316406 36.050781 94.058594 21.332031 66.667969 21.332031 Z M 153.332031 106.667969 C 153.332031 106.667969 144 106.667969 133.332031 109.332031 L 162.667969 149.292969 C 170.667969 138.667969 170.667969 126.25 170.667969 126.25 C 170.667969 126.25 165.34375 112 153.332031 106.667969 Z M 153.332031 106.667969 "/>
</g>
</svg>
