<svg width="512" height="513" viewBox="0 0 512 513" fill="none" xmlns="http://www.w3.org/2000/svg">
<path fill-rule="evenodd" clip-rule="evenodd" d="M428.319 36.6767L439.112 54.0787C441.945 58.6716 441.237 65.2548 437.487 68.725L426.028 79.3908C428.111 86.1781 429.445 93.4248 429.986 100.824L443.029 103.019C447.696 103.784 450.946 109.092 450.321 114.807L447.904 136.496C447.279 142.212 442.945 146.243 438.278 145.427L424.028 143.028C421.486 149.816 418.236 156.042 414.402 161.604L422.402 174.464C425.236 179.057 424.486 185.64 420.736 189.111L406.527 202.328C402.776 205.798 397.401 204.88 394.568 200.338L385.859 186.304C380.275 188.855 374.4 190.489 368.316 191.152L366.524 207.125C365.899 212.841 361.566 216.821 356.899 216.056L339.189 213.096C334.522 212.33 331.272 207.023 331.897 201.307L333.856 183.854C328.355 180.741 323.23 176.761 318.688 172.117L308.187 181.864C304.437 185.334 299.062 184.467 296.228 179.874L285.436 162.472C282.603 157.879 283.311 151.296 287.061 147.825L298.52 137.16C296.437 130.321 295.103 123.126 294.562 115.726L281.519 113.532C276.852 112.766 273.56 107.459 274.227 101.743L276.644 80.0542C277.311 74.3386 281.603 70.3581 286.269 71.1236L300.52 73.5221C303.062 66.7858 306.312 60.5088 310.104 54.9463L302.145 42.0861C299.312 37.5442 300.02 30.961 303.771 27.4908L317.98 14.2734C321.73 10.8032 327.105 11.6707 329.939 16.2637L338.648 30.2976C344.19 27.746 350.107 26.1129 356.149 25.4495L357.94 9.47634C358.565 3.76071 362.899 -0.27086 367.566 0.494627L385.275 3.45451C389.942 4.22 393.234 9.52737 392.567 15.243L390.609 32.6961C396.151 35.8091 401.235 39.7896 405.818 44.4846L416.319 34.7374C420.069 31.2162 425.444 32.0837 428.319 36.6767ZM123.635 342.923V258.719H159.054C165.637 258.719 170.638 259.382 174.096 260.811C177.555 262.189 180.388 264.741 182.472 268.466C184.597 272.243 185.68 276.784 185.68 282.143C185.68 286.787 184.847 290.869 183.222 294.238C181.597 297.657 179.347 300.412 176.513 302.505C174.721 303.832 172.221 304.954 169.054 305.822C171.596 306.894 173.43 307.863 174.555 308.935C175.346 309.649 176.471 311.129 177.93 313.375C179.388 315.62 180.388 317.406 180.888 318.631L191.222 342.974H167.221L155.887 317.304C154.428 313.987 153.178 311.793 152.053 310.823C150.512 309.547 148.761 308.884 146.845 308.884H144.97V342.974H123.635V342.923ZM198.556 489.539H158.887L153.178 512.401H117.426L160.054 373.644H198.389L240.85 512.401H204.181L198.556 489.539ZM191.139 459.481L178.763 409.571L166.346 459.481H191.139ZM249.101 373.644H307.354C320.063 373.644 329.564 377.318 335.856 384.718C342.148 392.118 345.315 402.682 345.315 416.307C345.315 430.341 341.856 441.313 334.981 449.223C328.105 457.133 317.563 461.063 303.437 461.063H284.228V512.401H249.101V373.644V373.644ZM284.228 432.944H292.853C299.645 432.944 304.437 431.515 307.187 428.606C309.938 425.748 311.313 422.023 311.313 417.583C311.313 413.245 310.104 409.52 307.729 406.509C305.354 403.498 300.854 401.967 294.27 401.967H284.228V432.944V432.944ZM359.482 373.644H394.609V512.401H359.482V373.644V373.644ZM144.97 292.911H153.928C154.887 292.911 156.762 292.502 159.554 291.737C160.971 291.38 162.137 290.512 163.012 289.083C163.929 287.654 164.346 286.021 164.346 284.184C164.346 281.479 163.637 279.336 162.221 277.907C160.804 276.427 158.179 275.713 154.303 275.713H144.97V292.911ZM195.306 258.719H252.184V276.682H216.64V290.104H249.601V307.251H216.64V323.836H253.226V342.871H195.306V258.719ZM258.268 315.059L278.436 313.528C278.852 317.559 279.769 320.57 281.103 322.663C283.311 326.031 286.436 327.766 290.478 327.766C293.478 327.766 295.853 326.898 297.478 325.163C299.104 323.428 299.937 321.387 299.937 319.09C299.937 316.896 299.145 314.957 297.603 313.222C296.062 311.487 292.437 309.905 286.728 308.323C277.436 305.771 270.81 302.352 266.81 298.116C262.81 293.88 260.81 288.471 260.81 281.888C260.81 277.55 261.851 273.467 263.893 269.64C265.935 265.812 269.018 262.751 273.144 260.556C277.269 258.362 282.894 257.29 290.061 257.29C298.854 257.29 305.521 259.28 310.146 263.312C314.729 267.343 317.48 273.671 318.355 282.449L298.395 283.929C297.854 280.102 296.728 277.295 295.062 275.611C293.353 273.876 290.978 273.008 288.02 273.008C285.561 273.008 283.686 273.671 282.436 274.947C281.186 276.223 280.561 277.805 280.561 279.642C280.561 280.969 281.103 282.143 282.103 283.266C283.103 284.337 285.436 285.409 289.186 286.379C298.479 288.828 305.146 291.329 309.146 293.829C313.146 296.33 316.105 299.443 317.896 303.168C319.73 306.843 320.646 311.027 320.646 315.62C320.646 321.03 319.438 325.98 316.98 330.522C314.563 335.064 311.146 338.534 306.771 340.881C302.395 343.229 296.895 344.402 290.228 344.402C278.561 344.402 270.435 341.647 265.935 336.135C261.435 330.522 258.893 323.53 258.268 315.059ZM323.73 258.719H388.359V279.54H366.691V342.923H345.44V279.54H323.73V258.719V258.719ZM252.226 58.8758C244.6 58.1613 236.892 58.2634 229.266 59.182C205.806 61.9377 183.013 72.3994 164.179 90.3118C142.386 110.98 125.843 141.906 119.468 182.885L117.468 195.694L107.051 197.939C96.8418 200.134 87.7162 203.145 79.7158 206.972C71.9653 210.646 65.0482 215.188 59.0062 220.547C54.1726 224.833 50.0057 229.63 46.4638 234.836C35.5049 250.911 30.4212 271.069 30.5462 291.482C30.6712 312.201 36.1716 333.124 46.3388 350.322C50.1307 356.701 54.506 362.57 59.5063 367.673C64.5899 372.828 70.2985 377.114 76.7156 380.329C80.3408 382.166 84.216 383.697 88.2579 384.922V423.146C79.9241 421.308 72.257 418.553 65.0899 414.929C55.631 410.132 47.2555 403.957 39.8801 396.405C32.8797 389.26 26.7543 381.146 21.5457 372.317C7.66989 348.842 0.169453 320.162 0.00277657 291.584C-0.1639 262.699 7.16986 233.968 23.0041 210.697C28.1294 203.145 34.1714 196.204 41.0885 190.08C49.1306 182.936 58.3395 176.914 68.7568 171.964C75.9239 168.545 83.591 165.687 91.6748 163.39C100.842 118.788 120.385 84.443 145.511 60.6109C169.013 38.3097 197.306 25.2964 226.433 21.8772C241.725 20.0911 257.226 20.9076 272.394 24.3778C272.06 26.0619 271.769 27.746 271.602 29.4811L271.56 29.7873C271.269 32.6961 271.144 35.605 271.269 38.5649C268.06 40.0958 265.06 42.1882 262.351 44.7398L262.226 44.8418C258.185 48.5672 254.768 53.3643 252.226 58.8758ZM472.697 156.858C475.031 159.461 477.281 162.166 479.489 165.074C483.948 170.943 488.156 177.577 492.115 184.977C505.449 210.085 512.283 243.613 511.991 276.427C511.699 308.629 504.616 340.677 490.115 364.254C480.656 379.615 468.53 392.169 453.988 402.12C444.029 408.959 432.82 414.623 420.611 419.216V379.666C427.194 376.655 433.32 373.287 438.945 369.459C449.904 361.958 458.863 352.823 465.572 341.851C475.989 324.857 481.114 300.821 481.323 276.172C481.573 250.299 476.406 224.323 466.363 205.441C463.488 199.981 460.321 195.081 456.988 190.693C455.696 189.009 454.404 187.427 453.071 185.896C453.279 183.344 453.363 180.741 453.238 178.139C456.446 176.608 459.446 174.515 462.155 171.964L462.28 171.862C466.572 167.83 470.155 162.727 472.697 156.858ZM367.024 65.7141C386.234 68.9292 399.651 90.618 397.026 114.144C394.401 137.67 376.691 154.153 357.482 150.938C338.273 147.723 324.813 126.035 327.48 102.509C330.147 78.9826 347.815 62.4991 367.024 65.7141Z" fill="#01B5E6"/>
</svg>
