<?xml version="1.0"?>
<svg xmlns="http://www.w3.org/2000/svg" viewBox="0 0 50 50" fill="white">
    <path d="M 15.6875 4 C 14.0875 4 12.70625 4.8875 11.90625 6.1875 L 6.8125 15.3125 L 11.1875 23 L 17.5 12 L 18.09375 12 L 32.5 12 L 41.3125 12 L 38.09375 6.1875 C 37.29375 4.8875 35.9125 4 34.3125 4 L 15.6875 4 z M 18.59375 14 L 12.3125 25 L 17.40625 33.90625 L 18.59375 36 L 31.3125 36 L 37.6875 25 L 31.3125 14 L 18.59375 14 z M 33.6875 14 L 40 25 L 39.6875 25.5 L 27.90625 46 L 34.3125 46 C 35.9125 46 37.29375 45.1125 38.09375 43.8125 L 47.40625 27.3125 C 48.20625 25.9125 48.20625 24.1125 47.40625 22.8125 L 42.5 14 L 33.6875 14 z M 5.59375 17.40625 L 2.5 22.8125 C 1.7 24.2125 1.7 25.9125 2.5 27.3125 L 11.8125 43.8125 C 12.6125 45.2125 13.99375 46 15.59375 46 L 25.5 46 L 30.1875 38 L 17.5 38 L 15.8125 35 L 15.6875 34.8125 L 10 25 L 5.59375 17.40625 z M 25 20 C 27.8 20 30 22.2 30 25 C 30 27.8 27.8 30 25 30 C 22.2 30 20 27.8 20 25 C 20 22.2 22.2 20 25 20 z"/>
</svg>
