<svg width="513" height="513" viewBox="0 0 513 513" fill="none" xmlns="http://www.w3.org/2000/svg">
<path fill-rule="evenodd" clip-rule="evenodd" d="M429.314 36.2929L440.106 53.6949C442.939 58.2879 442.231 64.871 438.481 68.3413L427.022 79.007C429.105 85.7944 430.439 93.041 430.98 100.441L444.023 102.635C448.69 103.401 451.94 108.708 451.315 114.424L448.898 136.112C448.273 141.828 443.939 145.86 439.273 145.043L425.022 142.645C422.48 149.432 419.23 155.658 415.396 161.22L423.397 174.081C426.23 178.673 425.48 185.257 421.73 188.727L407.521 201.944C403.77 205.414 398.395 204.496 395.562 199.954L386.853 185.92C381.269 188.472 375.394 190.105 369.31 190.768L367.518 206.741C366.893 212.457 362.56 216.437 357.893 215.672L340.183 212.712C335.516 211.947 332.266 206.639 332.891 200.924L334.85 183.471C329.349 180.358 324.224 176.377 319.682 171.733L309.182 181.48C305.431 184.95 300.056 184.083 297.223 179.49L286.43 162.088C283.597 157.495 284.305 150.912 288.055 147.442L299.514 136.776C297.431 129.937 296.097 122.742 295.556 115.342L282.513 113.148C277.846 112.382 274.555 107.075 275.221 101.359L277.638 79.6705C278.305 73.9548 282.597 69.9743 287.264 70.7398L301.514 73.1383C304.056 66.402 307.306 60.125 311.098 54.5625L303.14 41.7023C300.306 37.1604 301.014 30.5772 304.765 27.107L318.974 13.8896C322.724 10.4194 328.099 11.2869 330.933 15.8799L339.642 29.9138C345.184 27.3622 351.101 25.7291 357.143 25.0657L358.934 9.09255C359.56 3.37692 363.893 -0.654649 368.56 0.110838L386.269 3.07072C390.936 3.83621 394.228 9.14359 393.562 14.8592L391.603 32.3123C397.145 35.4253 402.229 39.4058 406.812 44.1008L417.313 34.3536C421.063 30.8324 426.438 31.6999 429.314 36.2929ZM124.629 342.539V258.335H160.048C166.632 258.335 171.632 258.999 175.09 260.427C178.549 261.805 181.382 264.357 183.466 268.082C185.591 271.859 186.674 276.401 186.674 281.759C186.674 286.403 185.841 290.486 184.216 293.854C182.591 297.273 180.341 300.029 177.507 302.121C175.715 303.448 173.215 304.571 170.048 305.438C172.59 306.51 174.424 307.479 175.549 308.551C176.34 309.266 177.466 310.746 178.924 312.991C180.382 315.236 181.382 317.022 181.882 318.247L192.216 342.59H168.215L156.881 316.92C155.423 313.603 154.173 311.409 153.047 310.439C151.506 309.164 149.756 308.5 147.839 308.5H145.964V342.59H124.629V342.539ZM199.55 489.155H159.881L154.173 512.018H118.42L161.048 373.26H199.384L241.844 512.018H205.176L199.55 489.155ZM192.133 459.097L179.757 409.187L167.34 459.097H192.133ZM250.095 373.26H308.348C321.057 373.26 330.558 376.935 336.85 384.334C343.142 391.734 346.309 402.298 346.309 415.923C346.309 429.957 342.85 440.929 335.975 448.839C329.099 456.749 318.557 460.679 304.431 460.679H285.222V512.018H250.095V373.26V373.26ZM285.222 432.56H293.847C300.639 432.56 305.431 431.131 308.182 428.222C310.932 425.364 312.307 421.639 312.307 417.199C312.307 412.861 311.098 409.136 308.723 406.125C306.348 403.114 301.848 401.583 295.264 401.583H285.222V432.56V432.56ZM360.476 373.26H395.603V512.018H360.476V373.26V373.26ZM145.964 292.527H154.923C155.881 292.527 157.756 292.119 160.548 291.353C161.965 290.996 163.131 290.128 164.006 288.699C164.923 287.271 165.34 285.638 165.34 283.8C165.34 281.096 164.631 278.952 163.215 277.523C161.798 276.043 159.173 275.329 155.298 275.329H145.964V292.527ZM196.3 258.335H253.178V276.299H217.635V289.72H250.595V306.867H217.635V323.453H254.22V342.488H196.3V258.335ZM259.262 314.675L279.43 313.144C279.847 317.176 280.763 320.187 282.097 322.279C284.305 325.647 287.43 327.382 291.472 327.382C294.472 327.382 296.848 326.515 298.473 324.779C300.098 323.044 300.931 321.003 300.931 318.707C300.931 316.512 300.139 314.573 298.598 312.838C297.056 311.103 293.431 309.521 287.722 307.939C278.43 305.387 271.804 301.968 267.804 297.732C263.804 293.497 261.804 288.087 261.804 281.504C261.804 277.166 262.846 273.084 264.887 269.256C266.929 265.429 270.013 262.367 274.138 260.172C278.263 257.978 283.888 256.906 291.056 256.906C299.848 256.906 306.515 258.897 311.14 262.928C315.724 266.96 318.474 273.288 319.349 282.065L299.389 283.545C298.848 279.718 297.723 276.911 296.056 275.227C294.347 273.492 291.972 272.624 289.014 272.624C286.555 272.624 284.68 273.288 283.43 274.563C282.18 275.839 281.555 277.421 281.555 279.258C281.555 280.585 282.097 281.759 283.097 282.882C284.097 283.953 286.43 285.025 290.18 285.995C299.473 288.444 306.14 290.945 310.14 293.445C314.14 295.946 317.099 299.059 318.89 302.784C320.724 306.459 321.641 310.643 321.641 315.236C321.641 320.646 320.432 325.596 317.974 330.138C315.557 334.68 312.14 338.15 307.765 340.497C303.39 342.845 297.889 344.019 291.222 344.019C279.555 344.019 271.429 341.263 266.929 335.751C262.429 330.138 259.887 323.146 259.262 314.675ZM324.724 258.335H389.353V279.156H367.685V342.539H346.434V279.156H324.724V258.335V258.335ZM253.22 58.492C245.595 57.7775 237.886 57.8796 230.26 58.7982C206.801 61.5539 184.008 72.0156 165.173 89.928C143.38 110.596 126.838 141.522 120.462 182.501L118.462 195.31L108.045 197.555C97.8359 199.75 88.7104 202.761 80.7099 206.588C72.9594 210.263 66.0424 214.804 60.0004 220.163C55.1668 224.45 50.9998 229.247 47.458 234.452C36.499 250.527 31.4154 270.685 31.5404 291.098C31.6654 311.817 37.1657 332.74 47.333 349.938C51.1248 356.317 55.5001 362.186 60.5004 367.289C65.584 372.444 71.2927 376.73 77.7097 379.946C81.3349 381.783 85.2102 383.314 89.2521 384.538V422.762C80.9183 420.925 73.2511 418.169 66.0841 414.546C56.6252 409.749 48.2497 403.574 40.8742 396.021C33.8738 388.876 27.7485 380.762 22.5398 371.933C8.66403 348.458 1.16359 319.778 0.996917 291.2C0.830241 262.316 8.164 233.584 23.9983 210.314C29.1236 202.761 35.1656 195.82 42.0827 189.696C50.1248 182.552 59.3337 176.53 69.7509 171.58C76.918 168.161 84.5851 165.303 92.6689 163.006C101.836 118.404 121.379 84.0593 146.505 60.2271C170.007 37.9259 198.3 24.9126 227.427 21.4934C242.719 19.7073 258.22 20.5238 273.388 23.994C273.054 25.6781 272.763 27.3622 272.596 29.0973L272.554 29.4035C272.263 32.3123 272.138 35.2212 272.263 38.1811C269.054 39.712 266.054 41.8044 263.346 44.356L263.221 44.4581C259.179 48.1834 255.762 52.9805 253.22 58.492ZM473.691 156.474C476.025 159.077 478.275 161.782 480.483 164.691C484.942 170.559 489.15 177.194 493.109 184.593C506.443 209.701 513.277 243.23 512.985 276.043C512.693 308.245 505.61 340.293 491.109 363.87C481.65 379.231 469.524 391.785 454.982 401.736C445.023 408.575 433.814 414.239 421.605 418.832V379.282C428.189 376.271 434.314 372.903 439.939 369.076C450.898 361.574 459.857 352.439 466.566 341.467C476.983 324.473 482.108 300.437 482.317 275.788C482.567 249.915 477.4 223.939 467.357 205.057C464.482 199.597 461.315 194.698 457.982 190.309C456.69 188.625 455.398 187.043 454.065 185.512C454.273 182.96 454.357 180.358 454.232 177.755C457.44 176.224 460.44 174.132 463.149 171.58L463.274 171.478C467.566 167.446 471.149 162.343 473.691 156.474ZM368.018 65.3303C387.228 68.5454 400.645 90.2342 398.02 113.76C395.395 137.286 377.686 153.77 358.476 150.555C339.267 147.34 325.808 125.651 328.474 102.125C331.141 78.5988 348.809 62.1153 368.018 65.3303Z" fill="white"/>
</svg>
