<?xml version="1.0" encoding="iso-8859-1"?>
<!-- Generator: Adobe Illustrator 19.0.0, SVG Export Plug-In . SVG Version: 6.00 Build 0)  -->
<svg version="1.1" id="Layer_1" xmlns="http://www.w3.org/2000/svg" xmlns:xlink="http://www.w3.org/1999/xlink" x="0px" y="0px"
	 viewBox="0 0 512 512" style="enable-background:new 0 0 512 512;" xml:space="preserve">
<g>
	<g>
		<path fill="white" d="M358.357,0H153.643c-4.71,0-8.576,3.857-8.576,8.567c0.009,90.769,18.082,164.531,59.861,242.859
			c1.493,2.799,4.446,4.574,7.62,4.574h86.903c3.174,0,6.127-1.775,7.62-4.574c41.779-78.327,59.861-152.09,59.861-242.859
			C366.933,3.857,363.068,0,358.357,0z"/>
	</g>
</g>
<g>
	<g>
		<path fill="white" d="M299.366,281.242c-0.188-4.565-3.951-8.175-8.525-8.175h-69.683c-4.574,0-8.337,3.61-8.525,8.175L204.8,469.333
			C204.8,492.86,227.763,512,256,512s51.2-19.14,51.191-43.025L299.366,281.242z M256.085,477.867c-4.719,0-8.576-3.823-8.576-8.533
			s3.772-8.533,8.491-8.533h0.085c4.719,0,8.533,3.823,8.533,8.533S260.796,477.867,256.085,477.867z"/>
	</g>
</g>
<g>
</g>
<g>
</g>
<g>
</g>
<g>
</g>
<g>
</g>
<g>
</g>
<g>
</g>
<g>
</g>
<g>
</g>
<g>
</g>
<g>
</g>
<g>
</g>
<g>
</g>
<g>
</g>
<g>
</g>
</svg>
